# xmcd
#
# Track frame offsets:
#	150
#	8937
#	17913
#	25715
#	33788
#	47026
#	60557
#	70181
#	80046
#	88471
#	97120
#	109326
#	121700
#	137716
#	153880
#	165317
#	176940
#	188274
#	199928
#	207243
#	214853
#	224151
#	233714
#	243646
#	253870
#	265025
#	276380
#	286357
#	296549
#	305560
#	314880
#	323403
#	332103
#
# Disc length: 4441 seconds
#
# Revision: 1
# Processed by: cddbd v1.5.2PL0 Copyright (c) Steve Scherf et al.
# Submitted via: audiograbber 1.83.01
#
DISCID=f4115721
DTITLE=Joachim Johow - Merry Fiddler
DYEAR=2016
DGENRE=Celtic
TTITLE0=The Merry Fiddler
TTITLE1=The Merry Fiddler
TTITLE2=Charles the Giant
TTITLE3=Charles the Giant
TTITLE4=The Wedding Bells
TTITLE5=The Wedding Bells
TTITLE6=The Spinning Wheel
TTITLE7=The Spinning Wheel
TTITLE8=Song of the Sea
TTITLE9=Song of the Sea
TTITLE10=The Clock
TTITLE11=The Clock
TTITLE12=The Bell in the Holy Lake
TTITLE13=The Bell in the Holy Lake
TTITLE14=The Fiddler s Dance
TTITLE15=The Fiddler s Dance
TTITLE16=The Sad Maiden
TTITLE17=The Sad Maiden
TTITLE18=The Frog in the Milk
TTITLE19=The Frog in the Milk
TTITLE20=The Weaver
TTITLE21=The Weaver
TTITLE22=Henry s Trek
TTITLE23=Henry s Trek
TTITLE24=Sally s Lament
TTITLE25=Sally s Lament
TTITLE26=The Fire Dance
TTITLE27=The Fire Dance
TTITLE28=The Dog Eats My Cake
TTITLE29=The Dog Eats My Cake
TTITLE30=The Fiddler s Tune
TTITLE31=The Fiddler s Tune
TTITLE32=unknown
EXTD=violin and piano
EXTT0=
EXTT1=
EXTT2=
EXTT3=
EXTT4=
EXTT5=
EXTT6=
EXTT7=
EXTT8=
EXTT9=
EXTT10=
EXTT11=
EXTT12=
EXTT13=
EXTT14=
EXTT15=
EXTT16=
EXTT17=
EXTT18=
EXTT19=
EXTT20=
EXTT21=
EXTT22=
EXTT23=
EXTT24=
EXTT25=
EXTT26=
EXTT27=
EXTT28=
EXTT29=
EXTT30=
EXTT31=
EXTT32=
PLAYORDER=
